<?xml version="1.0" standalone="yes"?>

<svg version="1.1" viewBox="0.0 0.0 960.0 720.0" fill="none" stroke="none" stroke-linecap="square" stroke-miterlimit="10" xmlns="http://www.w3.org/2000/svg" xmlns:xlink="http://www.w3.org/1999/xlink"><clipPath id="p.0"><path d="m0 0l960.0 0l0 720.0l-960.0 0l0 -720.0z" clip-rule="nonzero"></path></clipPath><g clip-path="url(#p.0)"><path fill="#000000" fill-opacity="0.0" d="m0 0l960.0 0l0 720.0l-960.0 0z" fill-rule="nonzero"></path><path fill="#cfe2f3" d="m192.46194 222.22865l0 0c0 -8.535217 6.919159 -15.454376 15.454376 -15.454376l155.89438 0c4.0987854 0 8.029663 1.6282196 10.9279175 4.5264893c2.8982544 2.8982544 4.5264893 6.829132 4.5264893 10.927887l0 61.81566c0 8.535217 -6.9191895 15.454376 -15.454407 15.454376l-155.89438 0l0 0c-8.535217 0 -15.454376 -6.919159 -15.454376 -15.454376z" fill-rule="nonzero"></path><path stroke="#000000" stroke-width="1.0" stroke-linejoin="round" stroke-linecap="butt" d="m192.46194 222.22865l0 0c0 -8.535217 6.919159 -15.454376 15.454376 -15.454376l155.89438 0c4.0987854 0 8.029663 1.6282196 10.9279175 4.5264893c2.8982544 2.8982544 4.5264893 6.829132 4.5264893 10.927887l0 61.81566c0 8.535217 -6.9191895 15.454376 -15.454407 15.454376l-155.89438 0l0 0c-8.535217 0 -15.454376 -6.919159 -15.454376 -15.454376z" fill-rule="nonzero"></path><path fill="#cfe2f3" d="m580.7349 222.22865l0 0c0 -8.535217 6.9191284 -15.454376 15.454346 -15.454376l155.89441 0c4.098755 0 8.029663 1.6282196 10.9279175 4.5264893c2.8982544 2.8982544 4.5264893 6.829132 4.5264893 10.927887l0 61.81566c0 8.535217 -6.9191895 15.454376 -15.454407 15.454376l-155.89441 0l0 0c-8.535217 0 -15.454346 -6.919159 -15.454346 -15.454376z" fill-rule="nonzero"></path><path stroke="#000000" stroke-width="1.0" stroke-linejoin="round" stroke-linecap="butt" d="m580.7349 222.22865l0 0c0 -8.535217 6.9191284 -15.454376 15.454346 -15.454376l155.89441 0c4.098755 0 8.029663 1.6282196 10.9279175 4.5264893c2.8982544 2.8982544 4.5264893 6.829132 4.5264893 10.927887l0 61.81566c0 8.535217 -6.9191895 15.454376 -15.454407 15.454376l-155.89441 0l0 0c-8.535217 0 -15.454346 -6.919159 -15.454346 -15.454376z" fill-rule="nonzero"></path><path fill="#cfe2f3" d="m379.2651 435.9557l0 0c0 -8.535217 6.919159 -15.454376 15.454376 -15.454376l155.89441 0c4.098755 0 8.029602 1.6282349 10.927856 4.5264893c2.8982544 2.8982544 4.5264893 6.829132 4.5264893 10.927887l0 61.815643c0 8.535217 -6.9191284 15.454376 -15.454346 15.454376l-155.89441 0l0 0c-8.535217 0 -15.454376 -6.919159 -15.454376 -15.454376z" fill-rule="nonzero"></path><path stroke="#000000" stroke-width="1.0" stroke-linejoin="round" stroke-linecap="butt" d="m379.2651 435.9557l0 0c0 -8.535217 6.919159 -15.454376 15.454376 -15.454376l155.89441 0c4.098755 0 8.029602 1.6282349 10.927856 4.5264893c2.8982544 2.8982544 4.5264893 6.829132 4.5264893 10.927887l0 61.815643c0 8.535217 -6.9191284 15.454376 -15.454346 15.454376l-155.89441 0l0 0c-8.535217 0 -15.454376 -6.919159 -15.454376 -15.454376z" fill-rule="nonzero"></path><path fill="#000000" fill-opacity="0.0" d="m218.37007 225.86613l118.645676 0l0 40.913406l-118.645676 0z" fill-rule="nonzero"></path><path fill="#000000" d="m228.8857 252.78613l0 -13.59375l1.8125 0l0 5.578125l7.0625 0l0 -5.578125l1.796875 0l0 13.59375l-1.796875 0l0 -6.40625l-7.0625 0l0 6.40625l-1.8125 0zm13.457321 0l0 -13.59375l9.84375 0l0 1.59375l-8.046875 0l0 4.171875l7.53125 0l0 1.59375l-7.53125 0l0 4.625l8.359375 0l0 1.609375l-10.15625 0zm12.334198 0l0 -13.59375l1.796875 0l0 11.984375l6.703125 0l0 1.609375l-8.5 0zm10.375732 0l0 -13.59375l1.796875 0l0 11.984375l6.703125 0l0 1.609375l-8.5 0zm9.906952 -6.625q0 -3.390625 1.8125 -5.296875q1.828125 -1.921875 4.703125 -1.921875q1.875 0 3.390625 0.90625q1.515625 0.890625 2.296875 2.5q0.796875 1.609375 0.796875 3.65625q0 2.0625 -0.84375 3.703125q-0.828125 1.625 -2.359375 2.46875q-1.53125 0.84375 -3.296875 0.84375q-1.921875 0 -3.4375 -0.921875q-1.5 -0.9375 -2.28125 -2.53125q-0.78125 -1.609375 -0.78125 -3.40625zm1.859375 0.03125q0 2.453125 1.3125 3.875q1.328125 1.40625 3.3125 1.40625q2.03125 0 3.34375 -1.421875q1.3125 -1.4375 1.3125 -4.0625q0 -1.65625 -0.5625 -2.890625q-0.546875 -1.234375 -1.640625 -1.921875q-1.078125 -0.6875 -2.421875 -0.6875q-1.90625 0 -3.28125 1.3125q-1.375 1.3125 -1.375 4.390625z" fill-rule="nonzero"></path><path fill="#000000" fill-opacity="0.0" d="m597.4619 238.13911l147.27563 0l0 40.913376l-147.27563 0z" fill-rule="nonzero"></path><path fill="#000000" d="m610.30566 265.0591l-3.609375 -13.59375l1.84375 0l2.0625 8.90625q0.34375 1.40625 0.578125 2.78125q0.515625 -2.171875 0.609375 -2.515625l2.59375 -9.171875l2.171875 0l1.953125 6.875q0.734375 2.5625 1.046875 4.8125q0.265625 -1.28125 0.6875 -2.953125l2.125 -8.734375l1.8125 0l-3.734375 13.59375l-1.734375 0l-2.859375 -10.359375q-0.359375 -1.296875 -0.421875 -1.59375q-0.21875 0.9375 -0.40625 1.59375l-2.890625 10.359375l-1.828125 0zm14.686829 -6.625q0 -3.390625 1.8125 -5.296875q1.828125 -1.921875 4.703125 -1.921875q1.875 0 3.390625 0.90625q1.515625 0.890625 2.296875 2.5q0.796875 1.609375 0.796875 3.65625q0 2.0625 -0.84375 3.703125q-0.828125 1.625 -2.359375 2.46875q-1.53125 0.84375 -3.296875 0.84375q-1.921875 0 -3.4375 -0.921875q-1.5 -0.9375 -2.28125 -2.53125q-0.78125 -1.609375 -0.78125 -3.40625zm1.859375 0.03125q0 2.453125 1.3125 3.875q1.328125 1.40625 3.3125 1.40625q2.03125 0 3.34375 -1.421875q1.3125 -1.4375 1.3125 -4.0625q0 -1.65625 -0.5625 -2.890625q-0.546875 -1.234375 -1.640625 -1.921875q-1.078125 -0.6875 -2.421875 -0.6875q-1.90625 0 -3.28125 1.3125q-1.375 1.3125 -1.375 4.390625zm13.230164 6.59375l0 -13.59375l6.03125 0q1.8125 0 2.75 0.359375q0.953125 0.359375 1.515625 1.296875q0.5625 0.921875 0.5625 2.046875q0 1.453125 -0.9375 2.453125q-0.921875 0.984375 -2.890625 1.25q0.71875 0.34375 1.09375 0.671875q0.78125 0.734375 1.484375 1.8125l2.375 3.703125l-2.265625 0l-1.796875 -2.828125q-0.796875 -1.21875 -1.3125 -1.875q-0.5 -0.65625 -0.90625 -0.90625q-0.40625 -0.265625 -0.8125 -0.359375q-0.3125 -0.078125 -1.015625 -0.078125l-2.078125 0l0 6.046875l-1.796875 0zm1.796875 -7.59375l3.859375 0q1.234375 0 1.921875 -0.25q0.703125 -0.265625 1.0625 -0.828125q0.375 -0.5625 0.375 -1.21875q0 -0.96875 -0.703125 -1.578125q-0.703125 -0.625 -2.21875 -0.625l-4.296875 0l0 4.5zm11.566711 7.59375l0 -13.59375l1.796875 0l0 11.984375l6.703125 0l0 1.609375l-8.5 0zm10.453796 0l0 -13.59375l4.6875 0q1.578125 0 2.421875 0.1875q1.15625 0.265625 1.984375 0.96875q1.078125 0.921875 1.609375 2.34375q0.53125 1.40625 0.53125 3.21875q0 1.546875 -0.359375 2.75q-0.359375 1.1875 -0.921875 1.984375q-0.5625 0.78125 -1.234375 1.234375q-0.671875 0.4375 -1.625 0.671875q-0.953125 0.234375 -2.1875 0.234375l-4.90625 0zm1.796875 -1.609375l2.90625 0q1.34375 0 2.109375 -0.25q0.765625 -0.25 1.21875 -0.703125q0.640625 -0.640625 1.0 -1.71875q0.359375 -1.078125 0.359375 -2.625q0 -2.125 -0.703125 -3.265625q-0.703125 -1.15625 -1.703125 -1.546875q-0.71875 -0.28125 -2.328125 -0.28125l-2.859375 0l0 10.390625z" fill-rule="nonzero"></path><path fill="#000000" fill-opacity="0.0" d="m405.18896 442.6824l129.54333 0l0 47.716553l-129.54333 0z" fill-rule="nonzero"></path><path fill="#000000" d="m419.11084 469.60242l0 -12.0l-4.46875 0l0 -1.59375l10.765625 0l0 1.59375l-4.5 0l0 12.0l-1.796875 0zm16.864746 -13.59375l1.796875 0l0 7.84375q0 2.0625 -0.46875 3.265625q-0.453125 1.203125 -1.671875 1.96875q-1.203125 0.75 -3.171875 0.75q-1.90625 0 -3.125 -0.65625q-1.21875 -0.65625 -1.734375 -1.90625q-0.515625 -1.25 -0.515625 -3.421875l0 -7.84375l1.796875 0l0 7.84375q0 1.765625 0.328125 2.609375q0.328125 0.84375 1.125 1.296875q0.8125 0.453125 1.96875 0.453125q1.984375 0 2.828125 -0.890625q0.84375 -0.90625 0.84375 -3.46875l0 -7.84375zm4.488556 13.59375l0 -13.59375l2.71875 0l3.21875 9.625q0.4375 1.34375 0.640625 2.015625q0.234375 -0.75 0.734375 -2.1875l3.25 -9.453125l2.421875 0l0 13.59375l-1.734375 0l0 -11.390625l-3.953125 11.390625l-1.625 0l-3.9375 -11.578125l0 11.578125l-1.734375 0z" fill-rule="nonzero"></path><path fill="#000000" fill-opacity="0.0" d="m379.2651 253.13649l201.48032 0" fill-rule="nonzero"></path><path stroke="#000000" stroke-width="1.0" stroke-linejoin="round" stroke-linecap="butt" d="m379.2651 253.13649l195.48032 0" fill-rule="evenodd"></path><path fill="#000000" stroke="#000000" stroke-width="1.0" stroke-linecap="butt" d="m574.7454 254.78821l4.538086 -1.6517181l-4.538086 -1.6517334z" fill-rule="evenodd"></path><path fill="#000000" fill-opacity="0.0" d="m674.147 299.49344l-201.48032 121.00787" fill-rule="nonzero"></path><path stroke="#000000" stroke-width="1.0" stroke-linejoin="round" stroke-linecap="butt" d="m674.147 299.49344l-196.3367 117.91864" fill-rule="evenodd"></path><path fill="#000000" stroke="#000000" stroke-width="1.0" stroke-linecap="butt" d="m476.95984 415.99612l-3.039917 3.7525024l4.7407837 -0.92056274z" fill-rule="evenodd"></path><path fill="#000000" fill-opacity="0.0" d="m285.86353 299.4987l186.80313 121.00787" fill-rule="nonzero"></path><path stroke="#000000" stroke-width="1.0" stroke-linejoin="round" stroke-linecap="butt" d="m285.86353 299.4987l181.7674 117.74582" fill-rule="evenodd"></path><path fill="#000000" stroke="#000000" stroke-width="1.0" stroke-linecap="butt" d="m466.7329 418.63077l4.706787 1.0809937l-2.9107666 -3.8535767z" fill-rule="evenodd"></path></g></svg>

